<svg xmlns="http://www.w3.org/2000/svg" viewBox="0 0 200 280" fill="none">
  <rect width="200" height="280" rx="8" fill="#f1f5f9"/>
  <rect x="1" y="1" width="198" height="278" rx="7" stroke="#e2e8f0" stroke-width="2"/>
  <g transform="translate(60, 80)">
    <path d="M40 0C38.168 0 36.246 0.477 34.5 1.253V14.253C36.246 13.477 38.168 13 40 13C41.832 13 43.418 13.477 44.5 14.253V1.253C43.332 0.477 41.747 0 40 0Z" fill="#cbd5e1"/>
    <path d="M35.5 0C33.754 0 32.168 0.477 31 1.253V14.253C32.168 13.477 33.754 13 35.5 13C37.246 13 38.832 13.477 40 14.253V1.253C38.832 0.477 37.246 0 35.5 0Z" fill="#94a3b8"/>
  </g>
  <rect x="50" y="140" width="100" height="8" rx="4" fill="#e2e8f0"/>
  <rect x="65" y="158" width="70" height="6" rx="3" fill="#e2e8f0"/>
  <rect x="70" y="174" width="60" height="6" rx="3" fill="#f1f5f9"/>
</svg>
